<svg viewBox="0 0 812.1666870117188 400" xmlns="http://www.w3.org/2000/svg"><g><g><g><g><g><line x1="51.41600036621094" y1="377.9749994277954" x2="46.41600036621094" y2="377.9749994277954" style="visibility: inherit;" fill="rgb(0, 0, 0)" stroke="rgb(204, 204, 204)" stroke-width="1px"></line><line x1="51.41600036621094" y1="335.9777772691515" x2="46.41600036621094" y2="335.9777772691515" style="visibility: inherit;" fill="rgb(0, 0, 0)" stroke="rgb(204, 204, 204)" stroke-width="1px"></line><line x1="51.41600036621094" y1="293.98055511050757" x2="46.41600036621094" y2="293.98055511050757" style="visibility: inherit;" fill="rgb(0, 0, 0)" stroke="rgb(204, 204, 204)" stroke-width="1px"></line><line x1="51.41600036621094" y1="251.98333295186362" x2="46.41600036621094" y2="251.98333295186362" style="visibility: inherit;" fill="rgb(0, 0, 0)" stroke="rgb(204, 204, 204)" stroke-width="1px"></line><line x1="51.41600036621094" y1="209.9861107932197" x2="46.41600036621094" y2="209.9861107932197" style="visibility: inherit;" fill="rgb(0, 0, 0)" stroke="rgb(204, 204, 204)" stroke-width="1px"></line><line x1="51.41600036621094" y1="167.98888863457572" x2="46.41600036621094" y2="167.98888863457572" style="visibility: inherit;" fill="rgb(0, 0, 0)" stroke="rgb(204, 204, 204)" stroke-width="1px"></line><line x1="51.41600036621094" y1="125.99166647593182" x2="46.41600036621094" y2="125.99166647593182" style="visibility: inherit;" fill="rgb(0, 0, 0)" stroke="rgb(204, 204, 204)" stroke-width="1px"></line><line x1="51.41600036621094" y1="83.99444431728784" x2="46.41600036621094" y2="83.99444431728784" style="visibility: inherit;" fill="rgb(0, 0, 0)" stroke="rgb(204, 204, 204)" stroke-width="1px"></line><line x1="51.41600036621094" y1="41.99722215864398" x2="46.41600036621094" y2="41.99722215864398" style="visibility: inherit;" fill="rgb(0, 0, 0)" stroke="rgb(204, 204, 204)" stroke-width="1px"></line><line x1="51.41600036621094" y1="0" x2="46.41600036621094" y2="0" style="visibility: inherit;" fill="rgb(0, 0, 0)" stroke="rgb(204, 204, 204)" stroke-width="1px"></line></g><g transform="translate(41.41600036621094, 0)"><text style="text-anchor: end; visibility: hidden; font-family: &quot;Helvetica Neue&quot;, sans-serif; font-size: 12px; font-weight: 200;" x="0" y="377.9749994277954" dx="0em" dy="0.3em" fill="rgb(50, 49, 63)" stroke="none" stroke-width="1px">-0.5</text><text style="text-anchor: end; visibility: inherit; font-family: &quot;Helvetica Neue&quot;, sans-serif; font-size: 12px; font-weight: 200;" x="0" y="335.9777772691515" dx="0em" dy="0.3em" fill="rgb(50, 49, 63)" stroke="none" stroke-width="1px">0</text><text style="text-anchor: end; visibility: inherit; font-family: &quot;Helvetica Neue&quot;, sans-serif; font-size: 12px; font-weight: 200;" x="0" y="293.98055511050757" dx="0em" dy="0.3em" fill="rgb(50, 49, 63)" stroke="none" stroke-width="1px">0.5</text><text style="text-anchor: end; visibility: inherit; font-family: &quot;Helvetica Neue&quot;, sans-serif; font-size: 12px; font-weight: 200;" x="0" y="251.98333295186362" dx="0em" dy="0.3em" fill="rgb(50, 49, 63)" stroke="none" stroke-width="1px">1</text><text style="text-anchor: end; visibility: inherit; font-family: &quot;Helvetica Neue&quot;, sans-serif; font-size: 12px; font-weight: 200;" x="0" y="209.9861107932197" dx="0em" dy="0.3em" fill="rgb(50, 49, 63)" stroke="none" stroke-width="1px">1.5</text><text style="text-anchor: end; visibility: inherit; font-family: &quot;Helvetica Neue&quot;, sans-serif; font-size: 12px; font-weight: 200;" x="0" y="167.98888863457572" dx="0em" dy="0.3em" fill="rgb(50, 49, 63)" stroke="none" stroke-width="1px">2</text><text style="text-anchor: end; visibility: inherit; font-family: &quot;Helvetica Neue&quot;, sans-serif; font-size: 12px; font-weight: 200;" x="0" y="125.99166647593182" dx="0em" dy="0.3em" fill="rgb(50, 49, 63)" stroke="none" stroke-width="1px">2.5</text><text style="text-anchor: end; visibility: inherit; font-family: &quot;Helvetica Neue&quot;, sans-serif; font-size: 12px; font-weight: 200;" x="0" y="83.99444431728784" dx="0em" dy="0.3em" fill="rgb(50, 49, 63)" stroke="none" stroke-width="1px">3</text><text style="text-anchor: end; visibility: inherit; font-family: &quot;Helvetica Neue&quot;, sans-serif; font-size: 12px; font-weight: 200;" x="0" y="41.99722215864398" dx="0em" dy="0.3em" fill="rgb(50, 49, 63)" stroke="none" stroke-width="1px">3.5</text><text style="text-anchor: end; visibility: hidden; font-family: &quot;Helvetica Neue&quot;, sans-serif; font-size: 12px; font-weight: 200;" x="0" y="0" dx="0em" dy="0.3em" fill="rgb(50, 49, 63)" stroke="none" stroke-width="1px">4</text></g><line x1="51.41600036621094" y1="0" x2="51.41600036621094" y2="377.9749994277954" fill="rgb(0, 0, 0)" stroke="rgb(204, 204, 204)" stroke-width="1px"></line></g></g><g transform="translate(51, 0)" clip-path="url(#clip_0)"><clipPath id="clip_0"><rect width="760" height="377"></rect></clipPath><g><g><g><line x1="0" y1="0" x2="0" y2="377.9749994277954" fill="rgb(0, 0, 0)" stroke="rgb(60, 60, 60)" stroke-width="1px" opacity="0.25"></line><line x1="84.52788884819878" y1="0" x2="84.52788884819878" y2="377.9749994277954" fill="rgb(0, 0, 0)" stroke="rgb(60, 60, 60)" stroke-width="1px" opacity="0.25"></line><line x1="169.05577769639757" y1="0" x2="169.05577769639757" y2="377.9749994277954" fill="rgb(0, 0, 0)" stroke="rgb(60, 60, 60)" stroke-width="1px" opacity="0.25"></line><line x1="253.58366654459635" y1="0" x2="253.58366654459635" y2="377.9749994277954" fill="rgb(0, 0, 0)" stroke="rgb(60, 60, 60)" stroke-width="1px" opacity="0.25"></line><line x1="338.11155539279514" y1="0" x2="338.11155539279514" y2="377.9749994277954" fill="rgb(0, 0, 0)" stroke="rgb(60, 60, 60)" stroke-width="1px" opacity="0.25"></line><line x1="422.63944424099395" y1="0" x2="422.63944424099395" y2="377.9749994277954" fill="rgb(0, 0, 0)" stroke="rgb(60, 60, 60)" stroke-width="1px" opacity="0.25"></line><line x1="507.1673330891927" y1="0" x2="507.1673330891927" y2="377.9749994277954" fill="rgb(0, 0, 0)" stroke="rgb(60, 60, 60)" stroke-width="1px" opacity="0.25"></line><line x1="591.6952219373916" y1="0" x2="591.6952219373916" y2="377.9749994277954" fill="rgb(0, 0, 0)" stroke="rgb(60, 60, 60)" stroke-width="1px" opacity="0.25"></line><line x1="676.2231107855903" y1="0" x2="676.2231107855903" y2="377.9749994277954" fill="rgb(0, 0, 0)" stroke="rgb(60, 60, 60)" stroke-width="1px" opacity="0.25"></line><line x1="760.7509996337891" y1="0" x2="760.7509996337891" y2="377.9749994277954" fill="rgb(0, 0, 0)" stroke="rgb(60, 60, 60)" stroke-width="1px" opacity="0.25"></line></g><g><line x1="0" y1="377.9749994277954" x2="760.7509996337891" y2="377.9749994277954" fill="rgb(0, 0, 0)" stroke="rgb(60, 60, 60)" stroke-width="1px" opacity="0.25"></line><line x1="0" y1="335.9777772691515" x2="760.7509996337891" y2="335.9777772691515" fill="rgb(0, 0, 0)" stroke="rgb(60, 60, 60)" stroke-width="1px" opacity="0.25"></line><line x1="0" y1="293.98055511050757" x2="760.7509996337891" y2="293.98055511050757" fill="rgb(0, 0, 0)" stroke="rgb(60, 60, 60)" stroke-width="1px" opacity="0.25"></line><line x1="0" y1="251.98333295186362" x2="760.7509996337891" y2="251.98333295186362" fill="rgb(0, 0, 0)" stroke="rgb(60, 60, 60)" stroke-width="1px" opacity="0.25"></line><line x1="0" y1="209.9861107932197" x2="760.7509996337891" y2="209.9861107932197" fill="rgb(0, 0, 0)" stroke="rgb(60, 60, 60)" stroke-width="1px" opacity="0.25"></line><line x1="0" y1="167.98888863457572" x2="760.7509996337891" y2="167.98888863457572" fill="rgb(0, 0, 0)" stroke="rgb(60, 60, 60)" stroke-width="1px" opacity="0.25"></line><line x1="0" y1="125.99166647593182" x2="760.7509996337891" y2="125.99166647593182" fill="rgb(0, 0, 0)" stroke="rgb(60, 60, 60)" stroke-width="1px" opacity="0.25"></line><line x1="0" y1="83.99444431728784" x2="760.7509996337891" y2="83.99444431728784" fill="rgb(0, 0, 0)" stroke="rgb(60, 60, 60)" stroke-width="1px" opacity="0.25"></line><line x1="0" y1="41.99722215864398" x2="760.7509996337891" y2="41.99722215864398" fill="rgb(0, 0, 0)" stroke="rgb(60, 60, 60)" stroke-width="1px" opacity="0.25"></line><line x1="0" y1="0" x2="760.7509996337891" y2="0" fill="rgb(0, 0, 0)" stroke="rgb(60, 60, 60)" stroke-width="1px" opacity="0.25"></line></g></g></g><g><g><line x1="0" y1="335.9777772691515" x2="760.7509996337891" y2="335.9777772691515" fill="rgb(0, 0, 0)" stroke="rgb(153, 153, 153)" stroke-width="1.5px"></line></g></g><g><g><line x1="84.52788884819878" y1="0" x2="84.52788884819878" y2="377.9749994277954" fill="rgb(0, 0, 0)" stroke="rgb(153, 153, 153)" stroke-width="1.5px"></line></g></g><g><g><g><g><g><path style="fill: none;" stroke="rgb(204, 51, 17)" stroke-width="2px" d="M84.52788884819878,151.5761940144944L101.43346661783855,167.61286351075407L118.33904438747831,173.25638442434155L135.24462215711807,174.96397745281845L152.15019992675784,177.79405864449788L169.05577769639757,174.58459800145565L185.96135546603733,180.72576094129698L202.8669332356771,190.7475003553608L219.77251100531683,196.01083077122476L236.67808877495662,196.05725065922704L253.58366654459635,199.47298742667274L270.48924431423615,196.73364329821095L287.39482208387585,209.8981673341334L304.30039985351567,214.8020339926027L321.2059776231554,223.0378493204153L338.11155539279514,224.0215584396765L355.0171331624349,235.55870293348664L371.92271093207466,233.21799309776563L388.82828870171437,231.48752055158263L405.7338664713542,241.99502667111287L422.63944424099395,247.32519331484892L439.54502201063366,246.43830911296948L456.4505997802734,252.9495244710256L473.35617754991324,250.01129875812785L490.261755319553,260.5387405974623L507.1673330891927,262.94135529892407L524.0729108588325,265.87119018651L540.9784886284723,267.62847232072704L557.8840663981119,261.8320891939846L574.7896441677517,277.3773747377612L591.6952219373916,274.4750002778816L608.6007997070313,273.07581013128856L625.506377476671,282.0757262535975L642.4119552463108,282.3254434228884L659.3175330159505,286.85187313609333L676.2231107855903,286.3678536848238L693.12868855523,287.9878436934276L710.0342663248698,289.37260021867564L726.9398440945096,291.0205212621333L743.8454218641493,290.73907315559495" fill="none"></path></g><g><path style="fill: none;" stroke="rgb(187, 187, 187)" stroke-width="2px" d="M84.52788884819878,85.26966953216993L101.43346661783855,155.94140573444562L118.33904438747831,160.5830941471316L135.24462215711807,164.3731438294153L152.15019992675784,172.82066228320545L169.05577769639757,177.3201572469009L185.96135546603733,183.64497712930856L202.8669332356771,186.4521087128557L219.77251100531683,194.5612606275473L236.67808877495662,205.14861976839293L253.58366654459635,210.96890873693985L270.48924431423615,214.41014840661634L287.39482208387585,213.9869123742678L304.30039985351567,216.4032397669761L321.2059776231554,221.71895776999017L338.11155539279514,217.56154413798356L355.0171331624349,221.7607016252709L371.92271093207466,235.27376532501367L388.82828870171437,231.47711712974603L405.7338664713542,234.33894928450897L422.63944424099395,232.36942833319952L439.54502201063366,234.74909843298803L456.4505997802734,245.83279792074316L473.35617754991324,244.76606168515002L490.261755319553,255.11778181945954L507.1673330891927,255.0192897512252L524.0729108588325,248.39665564775376L540.9784886284723,248.73013588285207L557.8840663981119,263.5368435601991L574.7896441677517,262.4497560687033L591.6952219373916,264.06162059432313L608.6007997070313,269.42719291622484L625.506377476671,266.7174019153382L642.4119552463108,270.21143469534513L659.3175330159505,273.6898823684333L676.2231107855903,275.00296642639915L693.12868855523,275.5554492047213L710.0342663248698,276.8474861089812L726.9398440945096,282.98481910767475L743.8454218641493,281.81800375633895" fill="none"></path></g><g><path style="fill: none;" stroke="rgb(0, 119, 187)" stroke-width="2px" d="M84.52788884819878,62.53023254941854L101.43346661783855,151.7979200714233L118.33904438747831,152.52529848903262L135.24462215711807,158.7873173495356L152.15019992675784,159.83430811076713L169.05577769639757,157.92792862057556L185.96135546603733,161.98582386024938L202.8669332356771,169.67507404429756L219.77251100531683,172.77883832458045L236.67808877495662,178.04057668647712L253.58366654459635,179.1054605322341L270.48924431423615,185.76529262619917L287.39482208387585,181.0038397009171L304.30039985351567,196.64850345617398L321.2059776231554,195.32269297938785L338.11155539279514,197.9283946908595L355.0171331624349,204.20286962139588L371.92271093207466,203.41553385060328L388.82828870171437,201.21317250334803L405.7338664713542,202.79483306172048L422.63944424099395,212.17783842152357L439.54502201063366,210.12532039263633L456.4505997802734,207.13943819635915L473.35617754991324,211.61829653598804L490.261755319553,219.99389219954514L507.1673330891927,219.22830448672082L524.0729108588325,221.73683082867956L540.9784886284723,224.60112616127864L557.8840663981119,222.02972870698898L574.7896441677517,232.88827771984782L591.6952219373916,240.6761651594418L608.6007997070313,247.37508768540874L625.506377476671,247.77216997585438L642.4119552463108,247.29207058199484L659.3175330159505,249.5708605325981L676.2231107855903,253.39067862019473L693.12868855523,255.01923968663505L710.0342663248698,248.78214297911688L726.9398440945096,249.88361402736749L743.8454218641493,249.84412307864423" fill="none"></path></g><g><path style="fill: none;" stroke="rgb(51, 187, 238)" stroke-width="2px" d="M84.52788884819878,146.67727373753357L101.43346661783855,162.0338257893009L118.33904438747831,167.67470329252757L135.24462215711807,178.4127268110199L152.15019992675784,187.20250682902355L169.05577769639757,189.88826182017127L185.96135546603733,197.54961601457873L202.8669332356771,203.3559069237151L219.77251100531683,205.4242053114228L236.67808877495662,200.04808938683206L253.58366654459635,214.25828247880565L270.48924431423615,209.60528948166007L287.39482208387585,215.48547572588203L304.30039985351567,222.33845700870896L321.2059776231554,225.14424686123962L338.11155539279514,224.85557443434027L355.0171331624349,228.56647199957092L371.92271093207466,238.1972269902714L388.82828870171437,235.52041353492737L405.7338664713542,241.15911823494082L422.63944424099395,240.4716412956941L439.54502201063366,245.66764485070232L456.4505997802734,246.0215614515065L473.35617754991324,244.96842275860251L490.261755319553,245.61903213365073L507.1673330891927,243.15319086126786L524.0729108588325,255.90497740939963L540.9784886284723,253.46798335387064L557.8840663981119,255.2855532675661L574.7896441677517,258.7063665844547L591.6952219373916,268.65836602441675L608.6007997070313,275.03166845594154L625.506377476671,274.46694989178275L642.4119552463108,276.93569491039534L659.3175330159505,273.5270973535073L676.2231107855903,280.53635525453865L693.12868855523,277.6703076612837L710.0342663248698,275.05536402646726L726.9398440945096,274.83240638062034L743.8454218641493,278.13666432514253" fill="none"></path></g></g></g></g></g></g><g transform="translate(51, 377)" clip-path="url(#clip_1)"><clipPath id="clip_1"><rect width="760" height="22"></rect></clipPath><g><g><line x1="0" y1="0" x2="0" y2="5" style="visibility: inherit;" fill="rgb(0, 0, 0)" stroke="rgb(204, 204, 204)" stroke-width="1px"></line><line x1="84.52788884819878" y1="0" x2="84.52788884819878" y2="5" style="visibility: inherit;" fill="rgb(0, 0, 0)" stroke="rgb(204, 204, 204)" stroke-width="1px"></line><line x1="169.05577769639757" y1="0" x2="169.05577769639757" y2="5" style="visibility: inherit;" fill="rgb(0, 0, 0)" stroke="rgb(204, 204, 204)" stroke-width="1px"></line><line x1="253.58366654459635" y1="0" x2="253.58366654459635" y2="5" style="visibility: inherit;" fill="rgb(0, 0, 0)" stroke="rgb(204, 204, 204)" stroke-width="1px"></line><line x1="338.11155539279514" y1="0" x2="338.11155539279514" y2="5" style="visibility: inherit;" fill="rgb(0, 0, 0)" stroke="rgb(204, 204, 204)" stroke-width="1px"></line><line x1="422.63944424099395" y1="0" x2="422.63944424099395" y2="5" style="visibility: inherit;" fill="rgb(0, 0, 0)" stroke="rgb(204, 204, 204)" stroke-width="1px"></line><line x1="507.1673330891927" y1="0" x2="507.1673330891927" y2="5" style="visibility: inherit;" fill="rgb(0, 0, 0)" stroke="rgb(204, 204, 204)" stroke-width="1px"></line><line x1="591.6952219373916" y1="0" x2="591.6952219373916" y2="5" style="visibility: inherit;" fill="rgb(0, 0, 0)" stroke="rgb(204, 204, 204)" stroke-width="1px"></line><line x1="676.2231107855903" y1="0" x2="676.2231107855903" y2="5" style="visibility: inherit;" fill="rgb(0, 0, 0)" stroke="rgb(204, 204, 204)" stroke-width="1px"></line><line x1="760.7509996337891" y1="0" x2="760.7509996337891" y2="5" style="visibility: inherit;" fill="rgb(0, 0, 0)" stroke="rgb(204, 204, 204)" stroke-width="1px"></line></g><g transform="translate(0, 8)"><text style="text-anchor: middle; visibility: hidden; font-family: &quot;Helvetica Neue&quot;, sans-serif; font-size: 12px; font-weight: 200;" x="0" y="0" dx="0em" dy="0.95em" fill="rgb(50, 49, 63)" stroke="none" stroke-width="1px">-5</text><text style="text-anchor: middle; visibility: inherit; font-family: &quot;Helvetica Neue&quot;, sans-serif; font-size: 12px; font-weight: 200;" x="84.52788884819878" y="0" dx="0em" dy="0.95em" fill="rgb(50, 49, 63)" stroke="none" stroke-width="1px">0</text><text style="text-anchor: middle; visibility: inherit; font-family: &quot;Helvetica Neue&quot;, sans-serif; font-size: 12px; font-weight: 200;" x="169.05577769639757" y="0" dx="0em" dy="0.95em" fill="rgb(50, 49, 63)" stroke="none" stroke-width="1px">5</text><text style="text-anchor: middle; visibility: inherit; font-family: &quot;Helvetica Neue&quot;, sans-serif; font-size: 12px; font-weight: 200;" x="253.58366654459635" y="0" dx="0em" dy="0.95em" fill="rgb(50, 49, 63)" stroke="none" stroke-width="1px">10</text><text style="text-anchor: middle; visibility: inherit; font-family: &quot;Helvetica Neue&quot;, sans-serif; font-size: 12px; font-weight: 200;" x="338.11155539279514" y="0" dx="0em" dy="0.95em" fill="rgb(50, 49, 63)" stroke="none" stroke-width="1px">15</text><text style="text-anchor: middle; visibility: inherit; font-family: &quot;Helvetica Neue&quot;, sans-serif; font-size: 12px; font-weight: 200;" x="422.63944424099395" y="0" dx="0em" dy="0.95em" fill="rgb(50, 49, 63)" stroke="none" stroke-width="1px">20</text><text style="text-anchor: middle; visibility: inherit; font-family: &quot;Helvetica Neue&quot;, sans-serif; font-size: 12px; font-weight: 200;" x="507.1673330891927" y="0" dx="0em" dy="0.95em" fill="rgb(50, 49, 63)" stroke="none" stroke-width="1px">25</text><text style="text-anchor: middle; visibility: inherit; font-family: &quot;Helvetica Neue&quot;, sans-serif; font-size: 12px; font-weight: 200;" x="591.6952219373916" y="0" dx="0em" dy="0.95em" fill="rgb(50, 49, 63)" stroke="none" stroke-width="1px">30</text><text style="text-anchor: middle; visibility: inherit; font-family: &quot;Helvetica Neue&quot;, sans-serif; font-size: 12px; font-weight: 200;" x="676.2231107855903" y="0" dx="0em" dy="0.95em" fill="rgb(50, 49, 63)" stroke="none" stroke-width="1px">35</text><text style="text-anchor: middle; visibility: hidden; font-family: &quot;Helvetica Neue&quot;, sans-serif; font-size: 12px; font-weight: 200;" x="760.7509996337891" y="0" dx="0em" dy="0.95em" fill="rgb(50, 49, 63)" stroke="none" stroke-width="1px">40</text></g><line x1="0" y1="0" x2="760.7509996337891" y2="0" fill="rgb(0, 0, 0)" stroke="rgb(204, 204, 204)" stroke-width="1px"></line></g></g></g></g></svg>