<svg viewBox="0 0 812.1666870117188 400" xmlns="http://www.w3.org/2000/svg"><g><g><g><g><g><line x1="51.41600036621094" y1="377.9749994277954" x2="46.41600036621094" y2="377.9749994277954" style="visibility: inherit;" fill="rgb(0, 0, 0)" stroke="rgb(204, 204, 204)" stroke-width="1px"></line><line x1="51.41600036621094" y1="335.9777772691515" x2="46.41600036621094" y2="335.9777772691515" style="visibility: inherit;" fill="rgb(0, 0, 0)" stroke="rgb(204, 204, 204)" stroke-width="1px"></line><line x1="51.41600036621094" y1="293.98055511050757" x2="46.41600036621094" y2="293.98055511050757" style="visibility: inherit;" fill="rgb(0, 0, 0)" stroke="rgb(204, 204, 204)" stroke-width="1px"></line><line x1="51.41600036621094" y1="251.98333295186362" x2="46.41600036621094" y2="251.98333295186362" style="visibility: inherit;" fill="rgb(0, 0, 0)" stroke="rgb(204, 204, 204)" stroke-width="1px"></line><line x1="51.41600036621094" y1="209.9861107932197" x2="46.41600036621094" y2="209.9861107932197" style="visibility: inherit;" fill="rgb(0, 0, 0)" stroke="rgb(204, 204, 204)" stroke-width="1px"></line><line x1="51.41600036621094" y1="167.98888863457572" x2="46.41600036621094" y2="167.98888863457572" style="visibility: inherit;" fill="rgb(0, 0, 0)" stroke="rgb(204, 204, 204)" stroke-width="1px"></line><line x1="51.41600036621094" y1="125.99166647593182" x2="46.41600036621094" y2="125.99166647593182" style="visibility: inherit;" fill="rgb(0, 0, 0)" stroke="rgb(204, 204, 204)" stroke-width="1px"></line><line x1="51.41600036621094" y1="83.99444431728784" x2="46.41600036621094" y2="83.99444431728784" style="visibility: inherit;" fill="rgb(0, 0, 0)" stroke="rgb(204, 204, 204)" stroke-width="1px"></line><line x1="51.41600036621094" y1="41.99722215864398" x2="46.41600036621094" y2="41.99722215864398" style="visibility: inherit;" fill="rgb(0, 0, 0)" stroke="rgb(204, 204, 204)" stroke-width="1px"></line><line x1="51.41600036621094" y1="0" x2="46.41600036621094" y2="0" style="visibility: inherit;" fill="rgb(0, 0, 0)" stroke="rgb(204, 204, 204)" stroke-width="1px"></line></g><g transform="translate(41.41600036621094, 0)"><text style="text-anchor: end; visibility: hidden; font-family: &quot;Helvetica Neue&quot;, sans-serif; font-size: 12px; font-weight: 200;" x="0" y="377.9749994277954" dx="0em" dy="0.3em" fill="rgb(50, 49, 63)" stroke="none" stroke-width="1px">-0.5</text><text style="text-anchor: end; visibility: inherit; font-family: &quot;Helvetica Neue&quot;, sans-serif; font-size: 12px; font-weight: 200;" x="0" y="335.9777772691515" dx="0em" dy="0.3em" fill="rgb(50, 49, 63)" stroke="none" stroke-width="1px">0</text><text style="text-anchor: end; visibility: inherit; font-family: &quot;Helvetica Neue&quot;, sans-serif; font-size: 12px; font-weight: 200;" x="0" y="293.98055511050757" dx="0em" dy="0.3em" fill="rgb(50, 49, 63)" stroke="none" stroke-width="1px">0.5</text><text style="text-anchor: end; visibility: inherit; font-family: &quot;Helvetica Neue&quot;, sans-serif; font-size: 12px; font-weight: 200;" x="0" y="251.98333295186362" dx="0em" dy="0.3em" fill="rgb(50, 49, 63)" stroke="none" stroke-width="1px">1</text><text style="text-anchor: end; visibility: inherit; font-family: &quot;Helvetica Neue&quot;, sans-serif; font-size: 12px; font-weight: 200;" x="0" y="209.9861107932197" dx="0em" dy="0.3em" fill="rgb(50, 49, 63)" stroke="none" stroke-width="1px">1.5</text><text style="text-anchor: end; visibility: inherit; font-family: &quot;Helvetica Neue&quot;, sans-serif; font-size: 12px; font-weight: 200;" x="0" y="167.98888863457572" dx="0em" dy="0.3em" fill="rgb(50, 49, 63)" stroke="none" stroke-width="1px">2</text><text style="text-anchor: end; visibility: inherit; font-family: &quot;Helvetica Neue&quot;, sans-serif; font-size: 12px; font-weight: 200;" x="0" y="125.99166647593182" dx="0em" dy="0.3em" fill="rgb(50, 49, 63)" stroke="none" stroke-width="1px">2.5</text><text style="text-anchor: end; visibility: inherit; font-family: &quot;Helvetica Neue&quot;, sans-serif; font-size: 12px; font-weight: 200;" x="0" y="83.99444431728784" dx="0em" dy="0.3em" fill="rgb(50, 49, 63)" stroke="none" stroke-width="1px">3</text><text style="text-anchor: end; visibility: inherit; font-family: &quot;Helvetica Neue&quot;, sans-serif; font-size: 12px; font-weight: 200;" x="0" y="41.99722215864398" dx="0em" dy="0.3em" fill="rgb(50, 49, 63)" stroke="none" stroke-width="1px">3.5</text><text style="text-anchor: end; visibility: hidden; font-family: &quot;Helvetica Neue&quot;, sans-serif; font-size: 12px; font-weight: 200;" x="0" y="0" dx="0em" dy="0.3em" fill="rgb(50, 49, 63)" stroke="none" stroke-width="1px">4</text></g><line x1="51.41600036621094" y1="0" x2="51.41600036621094" y2="377.9749994277954" fill="rgb(0, 0, 0)" stroke="rgb(204, 204, 204)" stroke-width="1px"></line></g></g><g transform="translate(51, 0)" clip-path="url(#clip_0)"><clipPath id="clip_0"><rect width="760" height="377"></rect></clipPath><g><g><g><line x1="0" y1="0" x2="0" y2="377.9749994277954" fill="rgb(0, 0, 0)" stroke="rgb(60, 60, 60)" stroke-width="1px" opacity="0.25"></line><line x1="84.52788884819878" y1="0" x2="84.52788884819878" y2="377.9749994277954" fill="rgb(0, 0, 0)" stroke="rgb(60, 60, 60)" stroke-width="1px" opacity="0.25"></line><line x1="169.05577769639757" y1="0" x2="169.05577769639757" y2="377.9749994277954" fill="rgb(0, 0, 0)" stroke="rgb(60, 60, 60)" stroke-width="1px" opacity="0.25"></line><line x1="253.58366654459635" y1="0" x2="253.58366654459635" y2="377.9749994277954" fill="rgb(0, 0, 0)" stroke="rgb(60, 60, 60)" stroke-width="1px" opacity="0.25"></line><line x1="338.11155539279514" y1="0" x2="338.11155539279514" y2="377.9749994277954" fill="rgb(0, 0, 0)" stroke="rgb(60, 60, 60)" stroke-width="1px" opacity="0.25"></line><line x1="422.63944424099395" y1="0" x2="422.63944424099395" y2="377.9749994277954" fill="rgb(0, 0, 0)" stroke="rgb(60, 60, 60)" stroke-width="1px" opacity="0.25"></line><line x1="507.1673330891927" y1="0" x2="507.1673330891927" y2="377.9749994277954" fill="rgb(0, 0, 0)" stroke="rgb(60, 60, 60)" stroke-width="1px" opacity="0.25"></line><line x1="591.6952219373916" y1="0" x2="591.6952219373916" y2="377.9749994277954" fill="rgb(0, 0, 0)" stroke="rgb(60, 60, 60)" stroke-width="1px" opacity="0.25"></line><line x1="676.2231107855903" y1="0" x2="676.2231107855903" y2="377.9749994277954" fill="rgb(0, 0, 0)" stroke="rgb(60, 60, 60)" stroke-width="1px" opacity="0.25"></line><line x1="760.7509996337891" y1="0" x2="760.7509996337891" y2="377.9749994277954" fill="rgb(0, 0, 0)" stroke="rgb(60, 60, 60)" stroke-width="1px" opacity="0.25"></line></g><g><line x1="0" y1="377.9749994277954" x2="760.7509996337891" y2="377.9749994277954" fill="rgb(0, 0, 0)" stroke="rgb(60, 60, 60)" stroke-width="1px" opacity="0.25"></line><line x1="0" y1="335.9777772691515" x2="760.7509996337891" y2="335.9777772691515" fill="rgb(0, 0, 0)" stroke="rgb(60, 60, 60)" stroke-width="1px" opacity="0.25"></line><line x1="0" y1="293.98055511050757" x2="760.7509996337891" y2="293.98055511050757" fill="rgb(0, 0, 0)" stroke="rgb(60, 60, 60)" stroke-width="1px" opacity="0.25"></line><line x1="0" y1="251.98333295186362" x2="760.7509996337891" y2="251.98333295186362" fill="rgb(0, 0, 0)" stroke="rgb(60, 60, 60)" stroke-width="1px" opacity="0.25"></line><line x1="0" y1="209.9861107932197" x2="760.7509996337891" y2="209.9861107932197" fill="rgb(0, 0, 0)" stroke="rgb(60, 60, 60)" stroke-width="1px" opacity="0.25"></line><line x1="0" y1="167.98888863457572" x2="760.7509996337891" y2="167.98888863457572" fill="rgb(0, 0, 0)" stroke="rgb(60, 60, 60)" stroke-width="1px" opacity="0.25"></line><line x1="0" y1="125.99166647593182" x2="760.7509996337891" y2="125.99166647593182" fill="rgb(0, 0, 0)" stroke="rgb(60, 60, 60)" stroke-width="1px" opacity="0.25"></line><line x1="0" y1="83.99444431728784" x2="760.7509996337891" y2="83.99444431728784" fill="rgb(0, 0, 0)" stroke="rgb(60, 60, 60)" stroke-width="1px" opacity="0.25"></line><line x1="0" y1="41.99722215864398" x2="760.7509996337891" y2="41.99722215864398" fill="rgb(0, 0, 0)" stroke="rgb(60, 60, 60)" stroke-width="1px" opacity="0.25"></line><line x1="0" y1="0" x2="760.7509996337891" y2="0" fill="rgb(0, 0, 0)" stroke="rgb(60, 60, 60)" stroke-width="1px" opacity="0.25"></line></g></g></g><g><g><line x1="0" y1="335.9777772691515" x2="760.7509996337891" y2="335.9777772691515" fill="rgb(0, 0, 0)" stroke="rgb(153, 153, 153)" stroke-width="1.5px"></line></g></g><g><g><line x1="84.52788884819878" y1="0" x2="84.52788884819878" y2="377.9749994277954" fill="rgb(0, 0, 0)" stroke="rgb(153, 153, 153)" stroke-width="1.5px"></line></g></g><g><g><g><g><g><path style="fill: none;" stroke="rgb(0, 119, 187)" stroke-width="2px" d="M84.52788884819878,62.53023254941854L101.43346661783855,132.43445143900723L118.33904438747831,147.27556590876105L135.24462215711807,155.64785269464696L152.15019992675784,158.6796041195796L169.05577769639757,158.1358971252196L185.96135546603733,160.91974249476192L202.8669332356771,167.25006661895742L219.77251100531683,171.2474069407156L236.67808877495662,176.1588817288991L253.58366654459635,178.2892597731121L270.48924431423615,183.69443262887194L287.39482208387585,181.74913383200345L304.30039985351567,192.52137823894296L321.2059776231554,194.5467288050687L338.11155539279514,196.99167324343273L355.0171331624349,202.20536822643507L371.92271093207466,203.08031797278932L388.82828870171437,201.73037179834878L405.7338664713542,202.49997729177196L422.63944424099395,209.49707088859608L439.54502201063366,209.9512952800174L456.4505997802734,207.91832260853218L473.35617754991324,210.59340375808284L490.261755319553,217.38995690126018L507.1673330891927,218.7190822055482L524.0729108588325,220.9009144600722L540.9784886284723,223.57616752004446L557.8840663981119,222.45809225820534L574.7896441677517,229.99911634697287L591.6952219373916,237.7186226383879L608.6007997070313,244.70024686738398L625.506377476671,246.92124727480808L642.4119552463108,247.18935252590413L659.3175330159505,248.91118281474385L676.2231107855903,252.14985828208484L693.12868855523,254.22442103757461L710.0342663248698,250.2896540013097L726.9398440945096,249.99608710014948L743.8454218641493,249.8862171126012" fill="none"></path></g><g><path style="fill: none;" stroke="rgb(51, 187, 238)" stroke-width="2px" d="M84.52788884819878,146.67727373753357L101.43346661783855,158.7027647725902L118.33904438747831,165.33033832677822L135.24462215711807,174.84492077741126L152.15019992675784,183.7940496697057L169.05577769639757,188.20215632704898L185.96135546603733,194.961215436238L202.8669332356771,201.03078775770805L219.77251100531683,204.20725914644757L236.67808877495662,201.20017141293815L253.58366654459635,210.64119266854914L270.48924431423615,209.89223451159617L287.39482208387585,213.93614813810518L304.30039985351567,220.01101754666777L321.2059776231554,223.7223423571995L338.11155539279514,224.54166914995662L355.0171331624349,227.4516016111961L371.92271093207466,235.2206887609837L388.82828870171437,235.43738977255052L405.7338664713542,239.57419945088796L422.63944424099395,240.22304990468407L439.54502201063366,244.15949205065738L456.4505997802734,245.5057682274715L473.35617754991324,245.1172674534792L490.261755319553,245.4800433172432L507.1673330891927,243.79772899157302L524.0729108588325,252.55126959766167L540.9784886284723,253.21405364340075L557.8840663981119,254.7117478716723L574.7896441677517,257.59985720101395L591.6952219373916,265.5951590803342L608.6007997070313,272.4177553588983L625.506377476671,273.8993230061738L642.4119552463108,276.09461989292595L659.3175330159505,274.2383010969263L676.2231107855903,278.79179425288L693.12868855523,277.98095944715584L710.0342663248698,275.86575395799804L726.9398440945096,275.1186436595539L743.8454218641493,277.30067260077453" fill="none"></path></g></g></g></g><g opacity="0.2"><g><g><g><path style="fill: none;" stroke="rgb(0, 119, 187)" stroke-width="2px" d="M84.52788884819878,62.53023254941854L101.43346661783855,151.7979200714233L118.33904438747831,152.52529848903262L135.24462215711807,158.7873173495356L152.15019992675784,159.83430811076713L169.05577769639757,157.92792862057556L185.96135546603733,161.98582386024938L202.8669332356771,169.67507404429756L219.77251100531683,172.77883832458045L236.67808877495662,178.04057668647712L253.58366654459635,179.1054605322341L270.48924431423615,185.76529262619917L287.39482208387585,181.0038397009171L304.30039985351567,196.64850345617398L321.2059776231554,195.32269297938785L338.11155539279514,197.9283946908595L355.0171331624349,204.20286962139588L371.92271093207466,203.41553385060328L388.82828870171437,201.21317250334803L405.7338664713542,202.79483306172048L422.63944424099395,212.17783842152357L439.54502201063366,210.12532039263633L456.4505997802734,207.13943819635915L473.35617754991324,211.61829653598804L490.261755319553,219.99389219954514L507.1673330891927,219.22830448672082L524.0729108588325,221.73683082867956L540.9784886284723,224.60112616127864L557.8840663981119,222.02972870698898L574.7896441677517,232.88827771984782L591.6952219373916,240.6761651594418L608.6007997070313,247.37508768540874L625.506377476671,247.77216997585438L642.4119552463108,247.29207058199484L659.3175330159505,249.5708605325981L676.2231107855903,253.39067862019473L693.12868855523,255.01923968663505L710.0342663248698,248.78214297911688L726.9398440945096,249.88361402736749L743.8454218641493,249.84412307864423" fill="none"></path></g><g><path style="fill: none;" stroke="rgb(51, 187, 238)" stroke-width="2px" d="M84.52788884819878,146.67727373753357L101.43346661783855,162.0338257893009L118.33904438747831,167.67470329252757L135.24462215711807,178.4127268110199L152.15019992675784,187.20250682902355L169.05577769639757,189.88826182017127L185.96135546603733,197.54961601457873L202.8669332356771,203.3559069237151L219.77251100531683,205.4242053114228L236.67808877495662,200.04808938683206L253.58366654459635,214.25828247880565L270.48924431423615,209.60528948166007L287.39482208387585,215.48547572588203L304.30039985351567,222.33845700870896L321.2059776231554,225.14424686123962L338.11155539279514,224.85557443434027L355.0171331624349,228.56647199957092L371.92271093207466,238.1972269902714L388.82828870171437,235.52041353492737L405.7338664713542,241.15911823494082L422.63944424099395,240.4716412956941L439.54502201063366,245.66764485070232L456.4505997802734,246.0215614515065L473.35617754991324,244.96842275860251L490.261755319553,245.61903213365073L507.1673330891927,243.15319086126786L524.0729108588325,255.90497740939963L540.9784886284723,253.46798335387064L557.8840663981119,255.2855532675661L574.7896441677517,258.7063665844547L591.6952219373916,268.65836602441675L608.6007997070313,275.03166845594154L625.506377476671,274.46694989178275L642.4119552463108,276.93569491039534L659.3175330159505,273.5270973535073L676.2231107855903,280.53635525453865L693.12868855523,277.6703076612837L710.0342663248698,275.05536402646726L726.9398440945096,274.83240638062034L743.8454218641493,278.13666432514253" fill="none"></path></g></g></g></g></g></g><g transform="translate(51, 377)" clip-path="url(#clip_1)"><clipPath id="clip_1"><rect width="760" height="22"></rect></clipPath><g><g><line x1="0" y1="0" x2="0" y2="5" style="visibility: inherit;" fill="rgb(0, 0, 0)" stroke="rgb(204, 204, 204)" stroke-width="1px"></line><line x1="84.52788884819878" y1="0" x2="84.52788884819878" y2="5" style="visibility: inherit;" fill="rgb(0, 0, 0)" stroke="rgb(204, 204, 204)" stroke-width="1px"></line><line x1="169.05577769639757" y1="0" x2="169.05577769639757" y2="5" style="visibility: inherit;" fill="rgb(0, 0, 0)" stroke="rgb(204, 204, 204)" stroke-width="1px"></line><line x1="253.58366654459635" y1="0" x2="253.58366654459635" y2="5" style="visibility: inherit;" fill="rgb(0, 0, 0)" stroke="rgb(204, 204, 204)" stroke-width="1px"></line><line x1="338.11155539279514" y1="0" x2="338.11155539279514" y2="5" style="visibility: inherit;" fill="rgb(0, 0, 0)" stroke="rgb(204, 204, 204)" stroke-width="1px"></line><line x1="422.63944424099395" y1="0" x2="422.63944424099395" y2="5" style="visibility: inherit;" fill="rgb(0, 0, 0)" stroke="rgb(204, 204, 204)" stroke-width="1px"></line><line x1="507.1673330891927" y1="0" x2="507.1673330891927" y2="5" style="visibility: inherit;" fill="rgb(0, 0, 0)" stroke="rgb(204, 204, 204)" stroke-width="1px"></line><line x1="591.6952219373916" y1="0" x2="591.6952219373916" y2="5" style="visibility: inherit;" fill="rgb(0, 0, 0)" stroke="rgb(204, 204, 204)" stroke-width="1px"></line><line x1="676.2231107855903" y1="0" x2="676.2231107855903" y2="5" style="visibility: inherit;" fill="rgb(0, 0, 0)" stroke="rgb(204, 204, 204)" stroke-width="1px"></line><line x1="760.7509996337891" y1="0" x2="760.7509996337891" y2="5" style="visibility: inherit;" fill="rgb(0, 0, 0)" stroke="rgb(204, 204, 204)" stroke-width="1px"></line></g><g transform="translate(0, 8)"><text style="text-anchor: middle; visibility: hidden; font-family: &quot;Helvetica Neue&quot;, sans-serif; font-size: 12px; font-weight: 200;" x="0" y="0" dx="0em" dy="0.95em" fill="rgb(50, 49, 63)" stroke="none" stroke-width="1px">-5</text><text style="text-anchor: middle; visibility: inherit; font-family: &quot;Helvetica Neue&quot;, sans-serif; font-size: 12px; font-weight: 200;" x="84.52788884819878" y="0" dx="0em" dy="0.95em" fill="rgb(50, 49, 63)" stroke="none" stroke-width="1px">0</text><text style="text-anchor: middle; visibility: inherit; font-family: &quot;Helvetica Neue&quot;, sans-serif; font-size: 12px; font-weight: 200;" x="169.05577769639757" y="0" dx="0em" dy="0.95em" fill="rgb(50, 49, 63)" stroke="none" stroke-width="1px">5</text><text style="text-anchor: middle; visibility: inherit; font-family: &quot;Helvetica Neue&quot;, sans-serif; font-size: 12px; font-weight: 200;" x="253.58366654459635" y="0" dx="0em" dy="0.95em" fill="rgb(50, 49, 63)" stroke="none" stroke-width="1px">10</text><text style="text-anchor: middle; visibility: inherit; font-family: &quot;Helvetica Neue&quot;, sans-serif; font-size: 12px; font-weight: 200;" x="338.11155539279514" y="0" dx="0em" dy="0.95em" fill="rgb(50, 49, 63)" stroke="none" stroke-width="1px">15</text><text style="text-anchor: middle; visibility: inherit; font-family: &quot;Helvetica Neue&quot;, sans-serif; font-size: 12px; font-weight: 200;" x="422.63944424099395" y="0" dx="0em" dy="0.95em" fill="rgb(50, 49, 63)" stroke="none" stroke-width="1px">20</text><text style="text-anchor: middle; visibility: inherit; font-family: &quot;Helvetica Neue&quot;, sans-serif; font-size: 12px; font-weight: 200;" x="507.1673330891927" y="0" dx="0em" dy="0.95em" fill="rgb(50, 49, 63)" stroke="none" stroke-width="1px">25</text><text style="text-anchor: middle; visibility: inherit; font-family: &quot;Helvetica Neue&quot;, sans-serif; font-size: 12px; font-weight: 200;" x="591.6952219373916" y="0" dx="0em" dy="0.95em" fill="rgb(50, 49, 63)" stroke="none" stroke-width="1px">30</text><text style="text-anchor: middle; visibility: inherit; font-family: &quot;Helvetica Neue&quot;, sans-serif; font-size: 12px; font-weight: 200;" x="676.2231107855903" y="0" dx="0em" dy="0.95em" fill="rgb(50, 49, 63)" stroke="none" stroke-width="1px">35</text><text style="text-anchor: middle; visibility: hidden; font-family: &quot;Helvetica Neue&quot;, sans-serif; font-size: 12px; font-weight: 200;" x="760.7509996337891" y="0" dx="0em" dy="0.95em" fill="rgb(50, 49, 63)" stroke="none" stroke-width="1px">40</text></g><line x1="0" y1="0" x2="760.7509996337891" y2="0" fill="rgb(0, 0, 0)" stroke="rgb(204, 204, 204)" stroke-width="1px"></line></g></g></g></g></svg>